<?xml version="1.0" encoding="UTF-8" standalone="no"?>
<!-- Created with Inkscape (http://www.inkscape.org/) -->

<svg
   width="100"
   height="100"
   viewBox="0 0 23.097815 24.767429"
   version="1.1"
   id="svg5"
   inkscape:version="1.1.2 (b8e25be833, 2022-02-05)"
   sodipodi:docname="ena.svg"
   xmlns:inkscape="http://www.inkscape.org/namespaces/inkscape"
   xmlns:sodipodi="http://sodipodi.sourceforge.net/DTD/sodipodi-0.dtd"
   xmlns="http://www.w3.org/2000/svg"
   xmlns:svg="http://www.w3.org/2000/svg">
  <sodipodi:namedview
     id="namedview7"
     pagecolor="#ffffff"
     bordercolor="#666666"
     borderopacity="1.0"
     inkscape:pageshadow="2"
     inkscape:pageopacity="0.0"
     inkscape:pagecheckerboard="0"
     inkscape:document-units="mm"
     showgrid="false"
     inkscape:zoom="4.9872446"
     inkscape:cx="34.98926"
     inkscape:cy="43.310489"
     inkscape:window-width="1920"
     inkscape:window-height="1046"
     inkscape:window-x="-11"
     inkscape:window-y="-11"
     inkscape:window-maximized="1"
     inkscape:current-layer="National_Eczema_Association" />
  <defs
     id="defs2" />
  <g
     inkscape:label="Layer 1"
     inkscape:groupmode="layer"
     id="layer1"
     transform="translate(-83.564064,-96.504425)">
    <g
       id="g55"
       transform="matrix(0.26458333,0,0,0.26458333,77.862901,90.561238)">
      <g
         id="Layer_3_2_">
        <g
           id="Layer_3_1_">
          <path
             id="Layer_3"
             d="M 0,0 H 150 V 150 H 0 Z"
             fill="none" />
        </g>
      </g>
      <g
         id="National_Eczema_Association">
        <path
           id="path32"
           style="fill:#ededed;fill-opacity:1;stroke-width:1.03551"
           class="st2"
           d="m 65.653754,22.284292 c -0.857828,-0.1 -1.608427,0.600391 -1.608427,1.400391 0,0.8 0.64379,1.5 1.501618,1.5 0.857827,0 1.608427,-0.600391 1.608427,-1.400391 0,-0.8 -0.64379,-1.5 -1.501618,-1.5 z m -5.147803,0.400391 c -0.643371,0 -1.178676,0.499609 -1.285904,1.099609 0,0.7 0.535723,1.201172 1.179094,1.201172 0.750599,0 1.287998,-0.501562 1.287998,-1.101562 0,-0.7 -0.537817,-1.199219 -1.181188,-1.199219 z m 11.79513,0 c -0.857828,0 -1.714818,0.7 -1.822047,1.5 -0.107228,0.9 0.643371,1.699219 1.608427,1.699219 0.965056,0.1 1.822046,-0.6 1.822046,-1.5 0.107229,-0.9 -0.64337,-1.699219 -1.608426,-1.699219 z m -16.404697,1 c -0.965056,0 -1.716912,0.6 -1.82414,1.5 -0.107229,0.9 0.64337,1.699219 1.608426,1.699219 0.965057,0.1 1.824141,-0.6 1.824141,-1.5 0.107228,-0.9 -0.643371,-1.699219 -1.608427,-1.699219 z m 21.44569,0 c -0.536142,-0.1 -1.179094,0.4 -1.179094,1 -0.107229,0.6 0.428913,1.099609 1.072284,1.099609 0.643371,0.1 1.179095,-0.4 1.179095,-1 0.107228,-0.6 -0.428914,-1.099609 -1.072285,-1.099609 z m -26.27097,1.400391 c -0.965056,0 -1.716912,0.7 -1.824141,1.5 -0.107228,0.9 0.643371,1.699218 1.608427,1.699218 0.965056,0.1 1.824141,-0.6 1.824141,-1.5 0.107228,-0.9 -0.643371,-1.699218 -1.608427,-1.699218 z m 31.309866,0.40039 c -0.857828,0 -1.501617,0.598828 -1.501617,1.298828 -0.107228,0.7 0.536979,1.400391 1.394807,1.400391 0.750599,0.1 1.501627,-0.500781 1.501627,-1.300781 0.107228,-0.7 -0.536989,-1.398438 -1.394817,-1.398438 z m -14.153314,0.398438 c -0.643371,0 -1.179095,0.4 -1.179095,1 0,0.6 0.428914,1.101562 1.072285,1.101562 0.643371,0 1.179095,-0.4 1.179095,-1 0,-0.6 -0.428914,-1.101562 -1.072285,-1.101562 z m 8.578276,1 c -0.965056,0 -1.715237,0.6 -1.715237,1.5 0,0.9 0.750599,1.601562 1.608427,1.601562 0.965056,0 1.715237,-0.7 1.715237,-1.5 0,-0.9 -0.750599,-1.601562 -1.608427,-1.601562 z m -31.525584,0.201172 c -0.643371,-0.1 -1.287579,0.499218 -1.394807,1.199218 0,0.7 0.537399,1.300782 1.287998,1.300782 0.750599,0 1.392713,-0.501172 1.392713,-1.201172 0,-0.7 -0.535305,-1.298828 -1.285904,-1.298828 z m 15.334506,0 c -0.750599,-0.1 -1.394807,0.499218 -1.394807,1.199218 0,0.7 0.535305,1.300782 1.285904,1.300782 0.750599,0 1.394807,-0.501172 1.394807,-1.201172 0,-0.7 -0.535305,-1.298828 -1.285904,-1.298828 z m 27.234349,1.099609 c -0.965056,-0.1 -1.822048,0.599609 -1.822048,1.599609 -0.107228,0.9 0.750181,1.701172 1.715238,1.701172 0.965056,0.1 1.824149,-0.701562 1.824149,-1.601562 0.107228,-0.9 -0.752283,-1.699219 -1.717339,-1.699219 z m -24.017495,0.400391 c -1.072285,0 -1.824141,0.699609 -1.824141,1.599609 -0.107228,0.9 0.750181,1.699219 1.715237,1.699219 0.965056,0.1 1.824141,-0.69961 1.824141,-1.59961 0.107228,-0.9 -0.750181,-1.699218 -1.715237,-1.699218 z m -22.517975,0.90039 c -1.072285,-0.1 -1.93095,0.699219 -1.93095,1.699219 -0.107228,0.9 0.749762,1.800781 1.822047,1.800781 0.965056,0 1.930949,-0.701172 1.930949,-1.701172 0,-0.9 -0.749762,-1.798828 -1.822046,-1.798828 z m 29.808253,0 c -1.072285,-0.1 -1.928856,0.699219 -1.928856,1.699219 0,0.9 0.749762,1.800781 1.822047,1.800781 0.965056,0 1.930949,-0.701172 1.930949,-1.701172 0.107229,-0.9 -0.751856,-1.798828 -1.82414,-1.798828 z m 10.829652,0.199219 c -0.750599,0 -1.285476,0.499219 -1.392705,1.199219 0,0.7 0.535296,1.300781 1.285895,1.300781 0.750599,0 1.394817,-0.499219 1.394817,-1.199219 0,-0.7 -0.537408,-1.300781 -1.288007,-1.300781 z m -30.451202,0.09961 c -0.750599,0 -1.394808,0.501172 -1.394808,1.201172 0,0.7 0.535305,1.298828 1.285904,1.298828 0.7506,0 1.394808,-0.499218 1.394808,-1.199218 0,-0.7 -0.535305,-1.300782 -1.285904,-1.300782 z m 5.252519,0.300782 c -0.965056,0 -1.715237,0.799218 -1.715237,1.699218 0,0.9 0.859084,1.59961 1.82414,1.59961 0.965056,0 1.715237,-0.799219 1.715237,-1.699219 0,-0.9 -0.859084,-1.599609 -1.82414,-1.599609 z m 36.24405,0.798828 c -0.750599,-0.1 -1.287578,0.501172 -1.394806,1.201172 0,0.7 0.537407,1.298828 1.288006,1.298828 0.750599,0 1.392705,-0.499219 1.392705,-1.199219 0,-0.7 -0.535306,-1.300781 -1.285905,-1.300781 z m -15.225599,0.800781 c -0.857827,0 -1.501616,0.7 -1.501616,1.5 0,0.8 0.750599,1.400391 1.608427,1.400391 0.857827,0 1.501616,-0.7 1.501616,-1.5 0,-0.8 -0.750599,-1.500391 -1.608427,-1.400391 z m -30.346489,1.099609 c -0.643371,0 -1.179094,0.5 -1.179094,1 -0.107228,0.6 0.428914,1.09961 1.072285,1.09961 0.643371,0.1 1.179094,-0.4 1.179094,-1 0.107228,-0.6 -0.428914,-1.09961 -1.072285,-1.09961 z m 17.906314,0.300782 c -1.072284,-0.1 -2.035666,0.699218 -2.035666,1.699218 -0.107228,0.9 0.749762,1.800782 1.822047,1.800782 1.072284,0 1.930531,-0.701172 2.03776,-1.701172 0.107228,-0.9 -0.751856,-1.798828 -1.824141,-1.798828 z m 19.087498,0.40039 c -0.750599,0 -1.394807,0.499219 -1.394807,1.199219 0,0.7 0.537408,1.300781 1.288007,1.300781 0.750599,0 1.392705,-0.501172 1.392705,-1.201172 0,-0.6 -0.535306,-1.198828 -1.285905,-1.298828 z m -14.79836,0.199219 c -0.750599,0 -1.392713,0.499219 -1.392713,1.199219 0,0.7 0.535304,1.300781 1.285903,1.300781 0.750599,0 1.394808,-0.499219 1.394808,-1.199219 0,-0.7 -0.537399,-1.300781 -1.287998,-1.300781 z m -15.761745,0.09961 c -1.179513,-0.1 -2.144569,0.800782 -2.144569,1.800782 -0.107228,1.1 0.858665,2 1.93095,2 1.179513,0.1 2.144569,-0.800782 2.144569,-1.800782 0,-1 -0.858665,-1.9 -1.93095,-2 z m 7.076659,0 c -0.750599,0 -1.392713,0.501172 -1.392713,1.201172 0,0.7 0.535304,1.298828 1.285904,1.298828 0.64337,0 1.287579,-0.499218 1.394807,-1.199218 0,-0.7 -0.537399,-1.300782 -1.287998,-1.300782 z m 12.974224,0.09961 c -1.179513,-0.1 -2.144569,0.800781 -2.144569,1.800781 -0.107228,1.1 0.858665,2 1.93095,2 1.072284,0.1 2.03734,-0.700781 2.144569,-1.800781 0.107228,-1.1 -0.858665,-2 -1.93095,-2 z m -39.029481,0.101562 c -0.857828,0 -1.610102,0.6 -1.71733,1.5 0,0.9 0.64337,1.59961 1.608426,1.59961 0.965056,0 1.717331,-0.6 1.717331,-1.5 0,-0.9 -0.643371,-1.59961 -1.608427,-1.59961 z m 6.647326,0.199219 c -0.965056,0 -1.822046,0.699609 -1.822046,1.599609 0,0.9 0.750181,1.701172 1.715237,1.701172 0.965056,0.1 1.822045,-0.701562 1.822045,-1.601562 0,-0.9 -0.75018,-1.699219 -1.715236,-1.699219 z m 47.609858,0.300781 c -0.965057,-0.1 -1.93096,0.699219 -1.93096,1.699219 -0.107228,0.9 0.751865,1.800781 1.824149,1.800781 0.965056,0.1 1.928847,-0.701172 1.928847,-1.701172 0.107229,-0.9 -0.749752,-1.798828 -1.822036,-1.798828 z m 6.004364,0.199219 c -1.072285,-0.1 -2.037759,0.699219 -2.037759,1.699219 -0.107228,0.9 0.751865,1.800781 1.824149,1.800781 0.965056,0.1 1.92885,-0.699219 1.92885,-1.699219 0,-1 -0.857412,-1.800781 -1.71524,-1.800781 z m -14.905173,0.800781 c -0.965053,-0.1 -1.928852,0.699219 -1.928852,1.699219 -0.107229,0.9 0.749761,1.800781 1.822042,1.800781 1.072284,0.1 2.037769,-0.701172 2.037769,-1.701172 0,-1 -0.751446,-1.798828 -1.930959,-1.798828 z m 19.623657,0.898438 c -0.7506,0 -1.287594,0.501172 -1.394824,1.201172 0,0.7 0.537414,1.298828 1.288014,1.298828 0.750602,0 1.392712,-0.499219 1.392712,-1.199219 0,-0.7 -0.5353,-1.300781 -1.285902,-1.300781 z m -40.853631,0.40039 c -1.179513,-0.1 -2.144569,0.700782 -2.144569,1.800782 -0.107228,1.1 0.749343,2 1.928856,2 1.179513,0.1 2.144569,-0.700782 2.144569,-1.800782 0,-1.1 -0.856571,-1.9 -1.928856,-2 z m 11.258988,0 c -0.965056,0 -1.71733,0.801172 -1.71733,1.701172 0,0.9 0.859084,1.59961 1.82414,1.59961 0.965056,0 1.715236,-0.801172 1.715236,-1.701172 0,-1 -0.85699,-1.69961 -1.822046,-1.59961 z m -23.054117,0.09961 c -0.750599,0 -1.394808,0.501172 -1.394808,1.201172 0,0.7 0.535305,1.298828 1.285904,1.298828 0.7506,0 1.394808,-0.499219 1.394808,-1.199219 0,-0.7 -0.535305,-1.300781 -1.285904,-1.300781 z m 17.047649,0 c -0.7506,0 -1.392714,0.501172 -1.392714,1.201172 0,0.7 0.535304,1.298828 1.285903,1.298828 0.7506,0 1.394809,-0.499219 1.394809,-1.199219 0,-0.7 -0.537399,-1.300781 -1.287998,-1.300781 z m -12.974225,1 c -0.750599,0 -1.501616,0.500781 -1.501616,1.300781 0,0.8 0.644208,1.400391 1.394807,1.400391 0.750599,0.1 1.501618,-0.500782 1.501618,-1.300782 0.107228,-0.7 -0.536981,-1.40039 -1.394809,-1.40039 z m -14.689459,0.601562 c -1.072285,-0.1 -2.03776,0.699219 -2.03776,1.699219 -0.107229,1 0.749762,1.900391 1.822046,1.900391 1.072285,0.1 2.037759,-0.701172 2.037759,-1.701172 0.107228,-1 -0.749761,-1.798438 -1.822045,-1.898438 z m 38.495432,0.09961 c -1.179513,0.1 -1.930949,0.90039 -1.930949,1.90039 0.107228,1.1 0.965475,1.798828 2.037759,1.798828 1.072285,0 1.928856,-0.90039 1.928856,-1.90039 -0.107229,-1 -0.963381,-1.798828 -2.035666,-1.798828 z m 16.620416,0.5 c -0.7506,0 -1.394817,0.499218 -1.394817,1.199218 0,0.7 0.535305,1.300782 1.285905,1.300782 0.64337,0 1.287577,-0.501172 1.394806,-1.201172 0,-0.7 -0.535295,-1.298828 -1.285894,-1.298828 z m -48.897855,0.199218 c -1.179513,-0.1 -2.144569,0.800782 -2.144569,1.800782 -0.107228,1.1 0.858665,2 1.93095,2 1.179513,0.1 2.144569,-0.800782 2.144569,-1.800782 0.107228,-1.1 -0.858665,-2 -1.93095,-2 z m 11.904033,0 c -0.750599,0 -1.394807,0.501172 -1.394807,1.201172 0,0.7 0.535305,1.298828 1.285904,1.298828 0.750599,0 1.394807,-0.599218 1.394807,-1.199218 0,-0.7 -0.535305,-1.300782 -1.285904,-1.300782 z m 31.739209,0 c -1.072284,-0.1 -2.037769,0.701172 -2.037769,1.701172 -0.107229,1 0.749762,1.898438 1.822047,1.898438 1.072285,0.1 2.037759,-0.699219 2.037759,-1.699219 0.107228,-1 -0.749752,-1.900391 -1.822037,-1.900391 z m 11.365786,0.300782 c -1.072283,-0.1 -2.037758,0.699218 -2.037758,1.699218 -0.107228,1 0.751865,1.900391 1.824148,1.900391 1.07229,0.1 2.035664,-0.699219 2.035664,-1.699219 0.10723,-1 -0.74976,-1.90039 -1.822054,-1.90039 z m -67.983252,0.298828 c -1.179513,-0.1 -2.14415,0.800781 -2.251378,1.800781 0,1.1 0.858246,2 2.037759,2 1.179513,0.1 2.144569,-0.700781 2.144569,-1.800781 0.107229,-1.1 -0.751437,-2 -1.93095,-2 z m 52.435128,0 c -1.072285,-0.1 -2.037759,0.701172 -2.037759,1.701172 -0.107229,1 0.751864,1.90039 1.824149,1.90039 1.072284,0 2.035657,-0.701172 2.035657,-1.701172 0.107228,-1 -0.749763,-1.90039 -1.822047,-1.90039 z m 20.48022,0.701172 c -1.07228,0 -1.92885,0.80039 -1.92885,1.90039 0.10723,1.1 0.96338,1.798828 2.03567,1.798828 1.17951,-0.1 1.93094,-0.90039 1.93094,-1.90039 -0.10722,-1.1 -0.96547,-1.798828 -2.03776,-1.798828 z m -55.222654,0.5 c -1.072284,-0.1 -2.037758,0.699218 -2.037758,1.699218 -0.107229,1 0.751855,1.900391 1.82414,1.900391 1.072284,0.1 2.037759,-0.699219 2.037759,-1.699219 0,-1 -0.859085,-1.90039 -1.824141,-1.90039 z m 4.182329,0.40039 c -1.072284,0 -1.930531,0.799219 -2.03776,1.699219 -0.107228,1 0.751856,1.900391 1.824141,1.900391 1.072284,0.1 2.035665,-0.701172 2.035665,-1.701172 0.107229,-1 -0.749761,-1.898438 -1.822046,-1.898438 z m 27.020733,0.5 c -0.7506,0 -1.392714,0.499219 -1.392714,1.199219 0,0.7 0.535304,1.300781 1.285903,1.300781 0.7506,0 1.394814,-0.501172 1.394814,-1.201172 0,-0.7 -0.537407,-1.298828 -1.288003,-1.298828 z m 11.258984,1.798828 c -1.072285,-0.1 -2.035657,0.701172 -2.035657,1.701172 -0.107229,1 0.749752,1.898438 1.822036,1.898438 1.072285,0.1 2.03777,-0.699219 2.03777,-1.699219 0,-1 -0.859093,-1.800391 -1.824149,-1.900391 z m -53.2917,0.400391 c -0.965056,0 -1.608427,0.699609 -1.608427,1.599609 0,0.9 0.75018,1.6 1.715236,1.5 0.857828,0 1.608427,-0.699609 1.608427,-1.599609 0,-0.9 -0.75018,-1.5 -1.715236,-1.5 z m 5.897565,0.09961 c -1.072285,0.1 -1.822046,0.900391 -1.822046,1.900391 0,1 0.856571,1.800781 1.928855,1.800781 1.072285,-0.1 1.930951,-0.90039 1.930951,-1.90039 -0.107229,-1.1 -0.965476,-1.800782 -2.03776,-1.800782 z m 52.328327,0 c -0.857828,0 -1.717339,0.6 -1.717339,1.5 0,0.8 0.643371,1.59961 1.608427,1.59961 0.965056,0 1.717339,-0.7 1.717339,-1.5 0,-0.8 -0.643371,-1.59961 -1.608427,-1.59961 z m -63.373695,0.300782 c -1.179513,-0.1 -2.144569,0.698828 -2.144569,1.798828 -0.107229,1.1 0.751436,2 1.930949,2 1.179513,0.1 2.144569,-0.698828 2.144569,-1.798828 0,-1.1 -0.858665,-2 -1.930949,-2 z m 52.541938,0.798828 c -1.072285,-0.1 -2.035657,0.701172 -2.035657,1.701172 -0.107229,1 0.749752,1.90039 1.822036,1.90039 1.072285,0.1 2.03777,-0.701172 2.03777,-1.701172 0.107228,-1 -0.751865,-1.80039 -1.824149,-1.90039 z m 17.479083,0 c -1.07229,0 -2.037762,0.800781 -2.037762,1.800781 0,1 0.858672,1.900391 1.930962,1.900391 1.07229,0.1 2.03776,-0.700782 2.03776,-1.800782 0,-1 -0.85868,-1.90039 -1.93096,-1.90039 z m -54.472896,0.40039 c -0.965056,0 -1.715237,0.801172 -1.715237,1.701172 0,0.9 0.859085,1.59961 1.824141,1.59961 0.965056,-0.1 1.715237,-0.801172 1.715237,-1.701172 0,-0.9 -0.859085,-1.59961 -1.824141,-1.59961 z m -21.229976,0.5 c -1.072285,-0.1 -2.03776,0.700782 -2.03776,1.800782 0,1 0.858665,1.90039 1.930949,1.90039 1.072285,0 2.035666,-0.800781 2.035666,-1.800781 0,-1 -0.856571,-1.900391 -1.928855,-1.900391 z m 80.205632,0.800782 c -1.07229,0 -2.03566,0.798828 -2.03566,1.798828 0,1 0.85656,1.90039 1.92885,1.90039 1.07228,0 2.03776,-0.798828 2.03776,-1.798828 0.10723,-1 -0.85867,-1.90039 -1.93095,-1.90039 z m -9.328049,2 c -1.072285,0 -2.037759,0.798828 -2.037759,1.798828 0,1 0.858675,1.90039 1.930959,1.90039 1.072283,0.1 2.037763,-0.698828 2.037763,-1.798828 0,-1 -0.85868,-1.90039 -1.930963,-1.90039 z m -9.543751,0.09961 c -1.286741,0 -2.251379,0.999609 -2.251379,2.099609 0,1.1 0.964638,1.99961 2.251379,2.09961 1.286742,0 2.25138,-0.99961 2.25138,-2.09961 0,-1.2 -1.071867,-2.099609 -2.25138,-2.099609 z m -49.431893,0.199219 c -1.072285,0 -2.03776,0.800781 -2.03776,1.800781 0,1 0.858666,1.900391 1.93095,1.900391 1.072285,0 2.037759,-0.800782 2.037759,-1.800782 0.107229,-1 -0.858665,-1.90039 -1.930949,-1.90039 z m 6.326897,0.300781 c -1.072284,0 -2.037759,0.800781 -2.037759,1.800781 0,1.1 0.858665,2 1.930949,2 1.072285,0 2.035666,-0.800781 2.035666,-1.800781 0,-1 -0.856571,-1.9 -1.928856,-2 z m -11.474701,0.199219 c -0.750599,0 -1.392713,0.501172 -1.392713,1.201172 0,0.7 0.535304,1.298828 1.285903,1.298828 0.750599,0 1.394809,-0.499219 1.394809,-1.199219 0,-0.7 -0.537399,-1.300781 -1.287999,-1.300781 z m 59.404978,0.601562 c -1.072285,0 -2.037759,0.798828 -2.037759,1.798828 0,1 0.858664,1.900391 1.930948,1.900391 1.072285,0 2.03777,-0.800781 2.03777,-1.800781 0,-1 -0.858675,-1.898438 -1.930959,-1.898438 z m 9.757379,0.5 c -0.96506,0 -1.71524,0.7 -1.71524,1.5 0,0.9 0.7506,1.59961 1.60843,1.59961 0.85783,0 1.60801,-0.7 1.71524,-1.5 0,-0.9 -0.7506,-1.59961 -1.60843,-1.59961 z m -78.383585,0.199219 c -1.072285,-0.1 -2.037759,0.699219 -2.037759,1.699219 0,1.1 0.858665,2 1.93095,2 1.072284,0 2.037759,-0.798828 2.037759,-1.798828 0,-1 -0.858666,-1.900391 -1.93095,-1.900391 z m 83.424585,0.900391 c -1.07228,0 -2.03777,0.798828 -2.03777,1.798828 0,1 0.85868,1.90039 1.93096,1.90039 1.07229,0 2.03566,-0.798828 2.03566,-1.798828 0,-1.1 -0.85656,-1.90039 -1.92885,-1.90039 z m -78.706114,0.298828 c -1.072285,0 -2.03776,0.800781 -2.03776,1.800781 0,1 0.858666,1.900391 1.930951,1.900391 1.179513,0.1 2.037758,-0.800782 2.037758,-1.800782 0,-1 -0.858665,-1.90039 -1.930949,-1.90039 z m 5.468232,1.201172 c -0.965056,0 -1.715236,0.799218 -1.715236,1.699218 0,0.9 0.85699,1.59961 1.822046,1.59961 0.965056,0 1.71733,-0.799219 1.71733,-1.699219 0,-0.9 -0.859084,-1.599609 -1.82414,-1.599609 z m 66.05231,0.90039 c -0.965064,0 -1.715244,0.799219 -1.715244,1.699219 0,0.9 0.859094,1.599609 1.824154,1.599609 0.965062,0 1.715242,-0.799218 1.715242,-1.699218 0,-0.9 -0.8591,-1.59961 -1.824152,-1.59961 z m -5.89757,0.298828 c -0.7506,0 -1.392705,0.501172 -1.392705,1.201172 0,0.7 0.642524,1.198828 1.285894,1.298828 0.7506,0 1.394817,-0.499218 1.394817,-1.199218 0,-0.7 -0.537407,-1.300782 -1.288006,-1.300782 z m -5.252511,0.09961 c -1.179513,0 -2.144569,0.80039 -2.144569,1.90039 0,1 0.856144,2 2.035657,2 1.072285,0 2.144569,-0.80039 2.144569,-1.90039 0,-1 -0.856144,-2 -2.035657,-2 z m -46.323953,0.601562 c -0.750599,0 -1.392713,0.499219 -1.392713,1.199219 0,0.7 0.535304,1.300781 1.285904,1.300781 0.750599,0 1.287578,-0.501172 1.394807,-1.201172 0,-0.7 -0.537399,-1.298828 -1.287998,-1.298828 z m -4.289138,0.09961 c -1.072285,0 -2.144569,0.80039 -2.144569,1.90039 0,1 0.858247,2 2.03776,2 1.179512,0.1 2.144569,-0.80039 2.144569,-1.90039 0,-1 -0.858247,-2 -2.03776,-2 z M 22.33304,55.784296 c -0.965056,0.1 -1.715236,0.801172 -1.715236,1.701172 0,0.9 0.85699,1.59961 1.822046,1.59961 0.965057,0 1.717331,-0.801172 1.717331,-1.701172 0,-0.9 -0.859085,-1.59961 -1.824141,-1.59961 z m 86.96186,0.800782 c -1.28674,-0.1 -2.35819,0.8 -2.35819,2 -0.10723,1.2 0.85783,2.199218 2.14457,2.199218 1.28674,0.1 2.35819,-0.8 2.35819,-2 0,-1.1 -0.96505,-2.099218 -2.14457,-2.199218 z m -78.919726,0.5 c -1.072284,0 -2.144569,0.80039 -2.144569,1.90039 0,1 0.858247,2 2.03776,2 1.179513,0 2.144569,-0.80039 2.144569,-1.90039 0,-1.1 -0.965475,-2 -2.03776,-2 z m 72.915356,0 c -1.28675,0 -2.25139,0.999609 -2.25139,2.099609 0,1.2 1.07187,2.099609 2.25139,2.099609 1.28674,0 2.25138,-0.899609 2.25138,-2.099609 0,-1.2 -1.07187,-2.099609 -2.25138,-2.099609 z m -8.042146,1.298828 c -1.286741,0 -2.251379,1.001562 -2.251379,2.101562 0,1.2 0.964638,2.09961 2.251379,2.09961 1.286742,0 2.25138,-0.99961 2.25138,-2.09961 0,-1.2 -1.071867,-2.101562 -2.25138,-2.101562 z m -60.368358,0.101562 c -0.965056,0 -1.71733,0.7 -1.71733,1.5 0,0.9 0.750599,1.59961 1.608426,1.59961 0.965056,0 1.717331,-0.7 1.717331,-1.5 0,-0.8 -0.643371,-1.49961 -1.608427,-1.59961 z m -10.079893,0.59961 c -0.965056,0 -1.715237,0.7 -1.715237,1.5 0,0.9 0.750599,1.599609 1.608427,1.599609 0.965056,0 1.715237,-0.7 1.715237,-1.5 0,-0.8 -0.643371,-1.499609 -1.608427,-1.599609 z m 15.654935,1.099609 c -0.965056,0 -1.715236,0.799219 -1.715236,1.699219 0,0.9 0.856989,1.601562 1.822045,1.601562 0.965056,0 1.715237,-0.801172 1.715237,-1.701172 0,-1 -0.85699,-1.699609 -1.822046,-1.599609 z m 5.254613,0.199219 c -1.286741,0 -2.251379,1.001562 -2.251379,2.101562 0,1.2 1.071866,2.09961 2.251379,2.09961 1.286742,0 2.251378,-0.99961 2.251378,-2.09961 0,-1.2 -1.071865,-2.101562 -2.251378,-2.101562 z m 13.187843,0.201172 c -1.286741,0 -2.251379,0.899609 -2.251379,2.099609 0,1.2 1.071866,2.099609 2.251379,2.099609 1.179513,0 2.253472,-0.899609 2.253472,-2.099609 0,-1.2 -1.073959,-2.099609 -2.253472,-2.099609 z m 30.132875,0 c -1.179513,0 -2.146252,0.899609 -2.253481,2.099609 0,1.2 1.073968,2.099609 2.253481,2.099609 1.286742,0 2.25138,-0.999609 2.25138,-2.099609 0,-1.2 -1.071867,-2.099609 -2.25138,-2.099609 z m -67.983262,0.199218 c -1.179513,0 -2.251379,0.89961 -2.251379,2.09961 0,1.2 1.071866,2.101562 2.251379,2.101562 1.286742,0 2.251379,-1.001562 2.251379,-2.101562 0,-1.2 -1.071866,-2.09961 -2.251379,-2.09961 z m 32.382154,0 c -1.286741,0 -2.251378,0.99961 -2.251378,2.09961 0,1.2 1.071865,2.101562 2.251378,2.101562 1.286742,0 2.251379,-1.001562 2.251379,-2.101562 0,-1.1 -0.964637,-2.09961 -2.251379,-2.09961 z m 16.406792,0 c -1.179513,0 -2.251379,0.89961 -2.251379,2.09961 0,1.2 1.071866,2.101562 2.251379,2.101562 1.286741,0 2.251378,-1.001562 2.251378,-2.101562 0,-1.2 -1.071865,-2.09961 -2.251378,-2.09961 z m -4.82528,0.300782 c -0.7506,0 -1.394809,0.499218 -1.394809,1.199218 0,0.7 0.537399,1.300782 1.287998,1.300782 0.750599,0 1.392713,-0.501172 1.392713,-1.201172 0,-0.7 -0.535303,-1.198828 -1.285902,-1.298828 z m 13.510365,0.09961 c -1.286741,0 -2.358188,0.999219 -2.358188,2.199219 0,1.2 1.071447,2.201172 2.358188,2.201172 1.286737,0 2.358185,-0.901172 2.358185,-2.201172 0,-1.2 -1.071448,-2.199219 -2.358185,-2.199219 z m 20.80275,0.199219 c -0.965064,0 -1.715244,0.7 -1.715244,1.5 0,0.9 0.7506,1.601562 1.608434,1.601562 0.965052,0 1.715242,-0.7 1.715242,-1.5 0,-0.8 -0.7506,-1.501562 -1.608432,-1.601562 z m -71.413742,0.201172 c -1.286741,0 -2.253472,0.999609 -2.253472,2.099609 0,1.2 1.073959,2.099609 2.253472,2.099609 1.179513,0 2.144151,-0.899609 2.25138,-2.099609 0,-1.2 -1.071867,-2.099609 -2.25138,-2.099609 z m 82.136594,0 c -0.96506,0 -1.71524,0.7 -1.71524,1.5 0,0.9 0.7506,1.599609 1.60843,1.599609 0.85781,0 1.60799,-0.6 1.71522,-1.5 0,-0.9 -0.7506,-1.599609 -1.60841,-1.599609 z m -26.807125,0.09961 c -0.750599,0 -1.394817,0.499219 -1.394817,1.199219 0,0.6 0.537407,1.200781 1.288006,1.300781 0.7506,0 1.392705,-0.499219 1.392705,-1.199219 0,-0.7 -0.535295,-1.300781 -1.285894,-1.300781 z m 22.947315,0.599609 c -1.07228,0 -2.03776,0.800782 -2.03776,1.800782 0,1 0.85656,1.90039 1.92885,1.90039 1.07228,0 2.03776,-0.800781 2.03776,-1.800781 0,-1 -0.85656,-1.900391 -1.92885,-1.900391 z m -71.736266,0.09961 c -1.286742,0 -2.25138,1.001562 -2.25138,2.101562 0,1.2 1.071867,2.09961 2.25138,2.09961 1.286741,0 2.251378,-0.99961 2.251378,-2.09961 0,-1.1 -0.964637,-2.001562 -2.251378,-2.101562 z m 58.439511,0.5 c -0.750599,0 -1.394817,0.501172 -1.394817,1.201172 0,0.7 0.537408,1.298828 1.288007,1.298828 0.750599,0 1.392705,-0.499219 1.392705,-1.199219 0,-0.7 -0.535296,-1.300781 -1.285895,-1.300781 z M 49.355867,63.08508 c -0.965056,0 -1.71733,0.799218 -1.71733,1.699218 0,0.9 0.859084,1.59961 1.82414,1.59961 0.965056,0 1.715236,-0.799219 1.715236,-1.699219 0,-1 -0.85699,-1.699609 -1.822046,-1.599609 z m -25.198686,0.5 c -0.643371,-0.1 -1.18077,0.399609 -1.287999,1.099609 0,0.6 0.535725,1.199219 1.179095,1.199219 0.643371,0 1.287998,-0.49961 1.287998,-1.09961 0,-0.6 -0.535724,-1.199218 -1.179094,-1.199218 z m 49.86123,0 c -0.965056,0 -1.71733,0.7 -1.71733,1.5 0,0.9 0.750599,1.599609 1.608426,1.599609 0.965056,0 1.71733,-0.7 1.71733,-1.5 0,-0.8 -0.750599,-1.499609 -1.608426,-1.599609 z m -11.904033,0.298828 c -0.965056,0 -1.715237,0.7 -1.715237,1.5 0,0.9 0.750599,1.601562 1.608426,1.601562 0.965056,0 1.715237,-0.7 1.715237,-1.5 0,-0.8 -0.64337,-1.501562 -1.608426,-1.601562 z m -23.481356,0.300781 c -0.7506,0 -1.394808,0.499219 -1.394808,1.199219 0,0.7 0.535305,1.300781 1.285904,1.300781 0.750599,0 1.394808,-0.499219 1.394808,-1.199219 0,-0.7 -0.535305,-1.300781 -1.285904,-1.300781 z M 20.188471,64.98547 c -0.965056,0 -1.715236,0.7 -1.715236,1.5 0,0.9 0.750599,1.59961 1.608427,1.59961 0.965056,0 1.715236,-0.7 1.715236,-1.5 0,-0.9 -0.750599,-1.59961 -1.608427,-1.59961 z m 65.195743,0 c -1.179513,0 -2.25138,0.89961 -2.25138,2.09961 0,1.2 1.071867,2.199609 2.25138,2.099609 1.179513,0 2.251368,-0.899609 2.251368,-2.099609 0,-1.1 -0.964627,-2.09961 -2.251368,-2.09961 z m 12.11555,0 c -1.179514,0 -2.25138,0.89961 -2.25138,2.09961 0,1.1 0.964638,2.099609 2.25138,2.099609 1.17951,0 2.253484,-0.899609 2.253484,-2.099609 0,-1.1 -0.96674,-2.09961 -2.253484,-2.09961 z m 5.470346,0.59961 c -1.17952,0 -2.25349,0.899609 -2.25349,2.099609 0,1.2 0.96674,2.199609 2.25349,2.099609 1.17951,0 2.25138,-0.899609 2.25138,-2.099609 0,-1.1 -0.96464,-2.099609 -2.25138,-2.099609 z m -49.540819,0.09961 c -1.179513,0 -2.251378,0.899609 -2.251378,2.099609 0,1.2 1.071865,2.19961 2.251378,2.09961 1.179513,0 2.251379,-0.89961 2.251379,-2.09961 0,-1.1 -0.964637,-2.099609 -2.251379,-2.099609 z m -8.791894,0.09961 c -1.286742,0 -2.360283,0.89961 -2.360283,2.09961 -0.107228,1.2 0.966731,2.201172 2.253472,2.201172 1.286742,0 2.358189,-0.89961 2.358189,-2.09961 0,-1.2 -0.964637,-2.201172 -2.251378,-2.201172 z m 21.229976,0 c -1.179513,0 -2.251379,0.89961 -2.251379,2.09961 0,1.2 1.071866,2.201562 2.251379,2.101562 1.179513,0 2.253473,-0.901562 2.253473,-2.101562 0,-1.1 -0.966731,-2.09961 -2.253473,-2.09961 z m 43.856857,0.09961 c -1.17951,0 -2.25137,0.901562 -2.25137,2.101562 0,1.2 1.07186,2.19961 2.25137,2.09961 1.17952,0 2.25138,-0.89961 2.25138,-2.09961 0,-1.1 -0.96463,-2.101562 -2.25138,-2.101562 z m -80.098817,0.201172 c -0.64337,0 -1.287998,0.499609 -1.287998,1.099609 0,0.6 0.537817,1.199219 1.181188,1.199219 0.643371,0 1.285904,-0.49961 1.285904,-1.09961 0,-0.6 -0.535723,-1.199218 -1.179094,-1.199218 z M 91.495388,66.2843 c -1.179513,0 -2.251379,0.89961 -2.251379,2.09961 0,1.1 0.964638,2.101562 2.251379,2.101562 1.286742,0 2.358608,-1.001562 2.25138,-2.101562 0,-1.1 -0.964638,-2.09961 -2.25138,-2.09961 z m -20.157689,0.201172 c -1.179513,0 -2.253472,0.89961 -2.253472,2.09961 0,1.1 0.966731,2.099609 2.253472,2.099609 1.286742,0 2.25138,-0.999609 2.25138,-2.099609 0,-1.1 -0.964638,-2.09961 -2.25138,-2.09961 z m -46.001424,0.09961 c -1.179513,0 -2.251379,0.899609 -2.251379,2.099609 0,1.1 0.964638,2.099609 2.251379,2.099609 1.286742,0 2.358607,-0.899609 2.251379,-2.099609 0,-1.1 -0.964637,-2.099609 -2.251379,-2.099609 z m 33.025107,0.09961 c -0.965056,0 -1.822466,0.799219 -1.715237,1.699219 0,0.9 0.859084,1.601562 1.82414,1.601562 0.965056,0 1.715237,-0.801172 1.715237,-1.701172 0,-0.9 -0.859084,-1.599609 -1.82414,-1.599609 z m -9.434847,0.300781 c -0.857828,0 -1.608009,0.6 -1.715237,1.5 0,0.9 0.750599,1.59961 1.608426,1.59961 0.965057,0 1.715238,-0.7 1.715238,-1.5 0,-0.9 -0.7506,-1.59961 -1.608427,-1.59961 z m 28.199826,0 c -1.179513,-0.1 -2.144569,0.698828 -2.144569,1.798828 0,1.1 0.858665,2 1.930949,2 1.179513,0.1 2.144569,-0.698828 2.144569,-1.798828 0.107229,-1.1 -0.751436,-2 -1.930949,-2 z m -44.070476,0.09961 c -1.179513,0 -2.251378,0.899609 -2.251378,2.099609 0,1.1 0.964637,2.099609 2.251378,2.099609 1.286742,0 2.358608,-0.899609 2.25138,-2.099609 0,-1.1 -0.964638,-2.099609 -2.25138,-2.099609 z m 48.682132,0 c -0.965056,0 -1.715226,0.7 -1.715226,1.5 0,0.9 0.750599,1.599609 1.608427,1.599609 0.965056,0 1.715226,-0.7 1.715226,-1.5 0,-0.9 -0.643371,-1.599609 -1.608427,-1.599609 z M 38.20369,67.284301 c -1.072285,0 -2.03776,0.800391 -2.03776,1.900391 0,1 0.858247,1.900391 2.03776,1.900391 1.179513,0 2.144987,-0.800391 2.037758,-1.900391 0,-1 -0.858245,-1.900391 -2.037758,-1.900391 z m 23.803877,0.701172 c -0.750599,0 -1.392713,0.499219 -1.392713,1.199219 0,0.7 0.535305,1.300781 1.285904,1.300781 0.750599,0 1.394807,-0.501172 1.394807,-1.201172 0,-0.7 -0.537399,-1.298828 -1.287998,-1.298828 z m -40.96043,0.699219 c -1.179513,0 -2.251379,0.899609 -2.251379,2.099609 0,1.1 0.964638,2.09961 2.251379,2.09961 1.179513,0 2.251379,-0.89961 2.251379,-2.09961 0,-1.1 -0.964637,-2.099609 -2.251379,-2.099609 z m 66.481646,0.900391 c -1.286742,0 -2.360292,0.999218 -2.360292,2.199218 0,1.2 1.07355,2.201172 2.360292,2.201172 1.286741,0 2.358179,-1.001172 2.358179,-2.201172 0,-1.2 -1.071438,-2.199218 -2.358179,-2.199218 z m 18.228847,0 c -1.28674,0 -2.36029,0.999218 -2.36029,2.199218 0,1.2 1.07355,2.201172 2.36029,2.201172 1.28674,0 2.35818,-1.001172 2.35818,-2.201172 0,-1.2 -1.07144,-2.199218 -2.35818,-2.199218 z m -76.56155,0.09961 c -0.857827,0 -1.608007,0.6 -1.715236,1.5 0,0.9 0.7506,1.599609 1.608427,1.599609 0.965056,0 1.715236,-0.7 1.715236,-1.5 0,-0.9 -0.750599,-1.599609 -1.608427,-1.599609 z m 66.588446,0 c -1.286741,0 -2.25095,0.999219 -2.358178,2.199219 0,1.2 1.071437,2.201172 2.358178,2.201172 1.286738,0 2.360288,-1.001172 2.360288,-2.201172 0,-1.2 -1.07355,-2.199219 -2.360288,-2.199219 z m -54.043554,0.09961 c -0.750599,0 -1.392713,0.501172 -1.392713,1.201172 0,0.7 0.535303,1.298828 1.285903,1.298828 0.750599,0 1.394808,-0.499218 1.394808,-1.199218 0,-0.6 -0.537399,-1.200782 -1.287998,-1.300782 z m 16.942933,0.5 c -1.286742,0 -2.358189,1.001172 -2.358189,2.201172 0,1.2 1.071447,2.199219 2.358189,2.199219 1.286741,0 2.358188,-0.999219 2.358188,-2.199219 0,-1.2 -1.071447,-2.201172 -2.358188,-2.201172 z m -8.900799,0.09961 c -1.286742,0 -2.358189,1.001172 -2.358189,2.201172 0,1.2 1.071447,2.199218 2.358189,2.199218 1.286741,0 2.360282,-0.999218 2.360282,-2.199218 0,-1.2 -1.073541,-2.201172 -2.360282,-2.201172 z m -4.609567,0.101562 c -0.965056,0 -1.715237,0.799219 -1.715237,1.699219 0.107228,1 0.85699,1.699609 1.822046,1.599609 0.965056,0 1.715236,-0.799218 1.715236,-1.699218 0,-0.9 -0.856989,-1.59961 -1.822045,-1.59961 z m 23.803878,0.09961 c -1.286742,0 -2.358188,0.899218 -2.358188,2.199218 0,1.2 1.071446,2.201172 2.358188,2.201172 1.286741,0 2.360282,-1.001172 2.360282,-2.201172 0,-1.2 -1.073541,-2.199218 -2.360282,-2.199218 z m 13.296743,0 c -1.286742,0 -2.358179,0.899218 -2.358179,2.199218 0,1.2 1.071437,2.201172 2.358179,2.201172 1.286741,0 2.358189,-1.001172 2.358189,-2.201172 0,-1.2 -1.071448,-2.199218 -2.358189,-2.199218 z m 18.55137,0 c -1.072282,0 -1.824562,0.799218 -1.717332,1.699218 0,0.9 0.85909,1.59961 1.824152,1.59961 0.96505,0 1.71522,-0.799219 1.71522,-1.699219 0,-0.9 -0.85698,-1.599609 -1.82204,-1.599609 z m 9.22124,0 c -0.85783,0 -1.60843,0.7 -1.60843,1.5 0,0.8 0.7506,1.5 1.60843,1.5 0.96504,0 1.71564,-0.6 1.60841,-1.5 0,-0.8 -0.7506,-1.5 -1.60841,-1.5 z m -55.758813,0.199218 c -1.072284,0 -1.93095,0.801172 -1.93095,1.701172 -0.107229,0.9 0.751856,1.798828 1.82414,1.798828 0.965056,0.1 1.928855,-0.699218 1.928855,-1.699218 0.107229,-0.9 -0.74976,-1.800782 -1.822045,-1.800782 z m 9.221228,0 c -0.965056,0.1 -1.715236,0.801172 -1.715236,1.701172 0,0.9 0.856989,1.59961 1.822045,1.59961 0.965056,0 1.715237,-0.801172 1.715237,-1.701172 0,-0.9 -0.85699,-1.59961 -1.822046,-1.59961 z m 9.973083,0.300782 c -0.965056,0 -1.824558,0.799218 -1.71733,1.699218 0,0.9 0.859085,1.59961 1.824141,1.59961 0.965056,0 1.715236,-0.799219 1.715236,-1.699219 0,-0.9 -0.856991,-1.599609 -1.822047,-1.599609 z m 18.01312,0.09961 c -0.965056,0 -1.715237,0.7 -1.715237,1.5 0,0.9 0.750599,1.599609 1.608427,1.599609 0.857828,0 1.608009,-0.7 1.715237,-1.5 0,-0.9 -0.750599,-1.599609 -1.608427,-1.599609 z m -66.588446,0.400391 c -1.072284,0.1 -1.822464,0.799218 -1.715236,1.699218 0,0.9 0.856989,1.59961 1.822045,1.59961 0.965057,0 1.715238,-0.799219 1.715238,-1.699219 0,-0.9 -0.856991,-1.599609 -1.822047,-1.599609 z m 11.79513,0 c -1.286741,0 -2.358188,0.899218 -2.358188,2.199218 0,1.2 1.071447,2.201172 2.358188,2.201172 1.286741,0 2.358188,-1.001172 2.358188,-2.201172 0,-1.2 -1.071447,-2.199218 -2.358188,-2.199218 z m 41.389763,0.09961 c -0.857828,-0.1 -1.608007,0.6 -1.715236,1.5 0,0.9 0.750599,1.599609 1.608427,1.599609 0.965056,0 1.715233,-0.7 1.715233,-1.5 0,-0.9 -0.750596,-1.599609 -1.608424,-1.599609 z m -46.644376,0.5 c -1.179513,0 -2.037759,0.900391 -2.037759,1.900391 0,1 0.858246,1.90039 2.037759,1.90039 1.072284,0 2.037759,-0.90039 2.037759,-1.90039 0,-1 -0.858246,-1.900391 -2.037759,-1.900391 z m 10.402416,0.5 c -1.286741,0 -2.360283,0.999219 -2.360283,2.199219 0,1.2 1.073542,2.201172 2.360283,2.201172 h 0.320429 c -0.750599,0.3 -1.285903,0.899218 -1.285903,1.699218 0,1 0.856571,1.800782 1.928855,1.800782 1.072285,0 1.93095,-0.800782 1.93095,-1.800782 0,-1 -0.858665,-1.798828 -1.93095,-1.798828 h -0.213619 c 0.965056,-0.3 1.608427,-1.101562 1.608427,-2.101562 0,-1.2 -1.071447,-2.199219 -2.358189,-2.199219 z m -21.125262,0.5 c -1.286741,0 -2.358187,0.999219 -2.358187,2.199219 0,1.2 1.071446,2.201172 2.358187,2.201172 1.286742,0 2.360283,-1.001172 2.360283,-2.201172 0,-1.2 -1.073541,-2.199219 -2.360283,-2.199219 z m 6.540518,1.5 c -1.39397,0 -2.464998,1.000781 -2.464998,2.300781 0,1.3 1.071028,2.298828 2.464998,2.298828 0.321685,0 0.750599,-0.09883 1.072284,-0.298828 -0.107228,0.2 -0.213619,0.39961 -0.213619,0.59961 0,0.9 0.750599,1.599609 1.608427,1.599609 0.965056,0 1.715236,-0.7 1.715236,-1.5 v -0.09961 c 0.428913,0.7 1.073123,1.198828 1.93095,1.298828 0.965056,0.1 1.928856,-0.399219 2.464998,-1.199219 v 0.400391 c 0,0.5 0.108485,0.898828 0.215714,1.298828 H 35.95231 c -0.857827,-0.1 -1.609264,0.501172 -1.930949,1.201172 -0.214457,-0.7 -0.750599,-1.3 -1.608427,-1.5 -1.179513,-0.2 -2.359026,0.499609 -2.680711,1.599609 -0.214457,1.1 0.535723,2.2 1.715236,2.5 1.072284,0.2 2.252216,-0.400391 2.573902,-1.400391 0.214457,0.7 0.964218,1.300782 1.822046,1.300782 0.214457,0 0.430589,3.9e-4 0.645046,-0.09961 -0.214457,0.4 -0.322943,0.898438 -0.215714,1.398438 -0.536142,-0.6 -1.393551,-1 -2.251378,-1 -1.179513,0 -2.144989,0.6 -2.573902,1.5 v -0.199219 c 0,-1.2 -1.071446,-2.199219 -2.358188,-2.199219 -1.286741,0 -2.360282,0.999219 -2.360282,2.199219 0,1.2 1.073541,2.199219 2.360282,2.199219 0.965056,0 1.715655,-0.499219 2.144569,-1.199219 v 0.300781 c 0,0.7 0.320847,1.298825 0.749761,1.798825 -0.214457,-0.1 -0.534886,-0.19922 -0.856571,-0.19922 -1.286741,0 -2.359444,0.9 -2.573901,2 -0.214457,-0.1 -0.428496,-0.0996 -0.642953,-0.0996 h -0.322522 c 0.321685,-0.4 0.429333,-0.80078 0.429333,-1.30078 0,-1.399996 -1.179513,-2.499996 -2.680712,-2.499996 -1.501198,0 -2.680711,1.1 -2.680711,2.499996 0,1.4 1.179513,2.5 2.680711,2.5 h 0.320429 c -0.214457,0.4 -0.427239,0.90039 -0.427239,1.40039 0,1.3 0.964219,2.39961 2.358189,2.59961 -0.107229,0.1 -0.106811,0.30039 -0.106811,0.40039 0,0.9 0.643371,1.70039 1.608427,1.90039 0.107229,0.7 0.320429,1.299219 0.856571,1.699219 0.857828,1.1 1.931369,2.3 3.432567,3.5 0.107229,0.3 0.428495,0.39961 0.642952,0.59961 6.433707,5.2 18.013961,11.09961 32.811487,11.09961 19.837261,0 31.310707,-8.99961 35.385393,-14.09961 0.64337,-0.7 1.07229,-1.19961 1.07229,-2.099609 v -0.30078 c 1.28674,-0.3 2.25138,-1.39922 2.25138,-2.69922 v -0.0996 c 0.96505,-0.3 1.71734,-1.09961 1.71734,-2.09961 0,-1.2 -1.07355,-2.20117 -2.3603,-2.20117 -0.32168,0 -0.64378,0.10117 -0.96547,0.20117 0.10723,-0.2 0.10891,-0.40156 0.10891,-0.60156 0,-0.9 -0.75228,-1.59961 -1.71734,-1.59961 -0.96506,0 -1.71524,0.69961 -1.71524,1.59961 0,0.9 0.75018,1.60156 1.71524,1.60156 0.10723,0 0.32169,-0.002 0.53615,-0.10156 -0.10723,0.2 -0.21363,0.3 -0.21363,0.5 h -0.10679 c -1.28675,0 -2.35862,0.70078 -2.787532,1.80078 -0.21446,-0.4 -0.64337,-0.8 -1.072284,-1 0.965054,-0.3 1.608426,-1.1 1.608426,-2 0,-1.2 -0.966742,-2.19922 -2.253486,-2.19922 -0.7506,-0.1 -1.393132,0.19922 -1.822046,0.69922 v -0.30078 c 0,-0.5 -0.214875,-0.89883 -0.429332,-1.29883 h 0.1068 c 0.750599,0 1.288428,-0.30117 1.717338,-0.701167 0.42891,0.999997 1.392294,1.701167 2.571806,1.701167 1.17951,0 2.14499,-0.70117 2.5739,-1.701167 0.32169,0.399997 0.85868,0.601557 1.39482,0.601557 0.21446,0 0.42849,-0.002 0.64294,-0.10156 -0.10723,0.3 -0.21361,0.60039 -0.21361,0.90039 -0.10723,1.1 0.85657,2 1.92885,2 1.17951,0.1 2.14457,-0.79883 2.14457,-1.79883 0.10723,-0.6 -0.21404,-1.1 -0.64295,-1.5 0.21445,0.1 0.32168,0.0996 0.53614,0.0996 0.96505,0 1.82288,-0.701167 1.60843,-1.701167 0,-1 -0.75017,-1.699219 -1.71523,-1.699219 -1.07229,0 -1.82415,0.799219 -1.82415,1.699219 0,0.5 0.21446,0.901172 0.53614,1.201172 -0.21445,-0.1 -0.32168,-0.09961 -0.53614,-0.09961 -0.32169,0 -0.64211,0.09922 -0.85656,0.199219 0.10723,-0.2 0.21361,-0.500781 0.21361,-0.800781 0,-0.9 -0.74975,-1.699219 -1.82204,-1.699219 -0.7506,0 -1.28674,0.300781 -1.60843,0.800781 -0.53614,-0.8 -1.39482,-1.40039 -2.4671,-1.40039 -0.965062,0 -1.715246,0.499218 -2.251386,1.199218 -0.42891,-0.6 -1.071437,-1 -1.822036,-1 -1.179513,-0.1 -2.253481,0.800391 -2.253481,1.900391 0,0.3 0.108494,0.600391 0.215722,0.900391 h -0.536142 c -0.482582,0 -0.925532,0.123449 -1.31313,0.324218 -0.186985,0.200897 -0.408627,0.362217 -0.665996,0.488277 -0.432925,0.44257 -0.701585,1.02876 -0.701585,1.6875 0,1.4 1.179513,2.5 2.680711,2.5 0.857827,0 1.501616,-0.30039 2.037759,-0.90039 -0.107229,0.7 0.320001,1.40078 0.963372,1.80078 -0.107228,0 -0.213191,0.0996 -0.32042,0.0996 -0.428914,-0.4 -1.07355,-0.70117 -1.824149,-0.70117 -1.39397,0 -2.571799,1.10039 -2.571799,2.40039 0,0.9 0.428914,1.6 1.072284,2 -0.214457,0.2 -0.322103,0.39961 -0.429332,0.59961 -0.428913,-0.3 -0.965485,-0.39844 -1.501627,-0.39844 h -0.429332 c 0.428914,-0.4 0.751865,-1.00117 0.751865,-1.70117 0,-1.4 -1.181197,-2.59961 -2.789624,-2.59961 -0.750599,0 -1.499515,0.30078 -2.035657,0.80078 -0.321685,-1.1 -1.39397,-1.90039 -2.680711,-1.90039 -1.501198,0 -2.789623,1.09961 -2.789623,2.59961 0,1.3 1.07355,2.39961 2.360291,2.59961 -0.965056,0.5 -1.608427,1.4 -1.608427,2.499999 v 0.30078 c -0.214457,-0.5 -0.429761,-1.00078 -0.858675,-1.300779 0.428914,-0.5 0.642953,-1.09922 0.642953,-1.69922 0,-1.4 -1.179513,-2.5 -2.680709,-2.5 -1.501199,0 -2.680711,1.1 -2.680711,2.5 0,0.7 0.322942,1.29922 0.751855,1.69922 -0.214457,0.200002 -0.428913,0.401169 -0.536142,0.701169 -0.321685,-0.499997 -0.858247,-0.899999 -1.501617,-0.999999 -0.214457,-1.3 -1.393133,-2.30078 -2.894331,-2.30078 -1.715655,0 -3.003234,1.30078 -3.003234,2.800782 0,0.599997 0.214457,1.199607 0.536142,1.599607 -0.536142,0.2 -0.964219,0.39883 -1.285904,0.79883 l -0.322523,-0.29883 c 0.536142,-0.5 0.858665,-1.20039 0.858665,-1.90039 0,-1.599999 -1.394807,-2.800779 -3.003234,-2.800779 -0.643371,0 -1.179513,0.10039 -1.608427,0.40039 -0.107228,-0.8 -0.750599,-1.40039 -1.608426,-1.40039 -0.965056,0 -1.714818,0.7 -1.822047,1.5 -0.536142,-0.8 -1.394807,-1.29883 -2.467091,-1.29883 -0.536143,0 -1.179513,0.2 -1.608427,0.5 v -0.20117 c 0.107228,-0.9 -0.64379,-1.59961 -1.501618,-1.59961 -0.428914,-0.1 -0.643789,0.001 -0.965474,0.20117 v -0.40039 c 0,-1.4 -1.179095,-2.59961 -2.787522,-2.59961 -1.286741,0 -2.359026,0.9 -2.680711,2 -0.214457,-0.6 -0.536142,-1.10039 -1.072284,-1.40039 1.179513,-0.3 2.144569,-1.3 2.144569,-2.5 0,-1.4 -1.179513,-2.499995 -2.680712,-2.499995 -0.536142,0 -1.072702,0.10039 -1.501616,0.40039 v -0.5 c 0,-1 -0.643371,-1.900781 -1.608427,-2.300781 1.072285,-0.3 1.82414,-1.099219 1.82414,-2.199219 0,-1.3 -1.073123,-2.300781 -2.467093,-2.300781 -1.393969,0 -2.464997,1.000781 -2.464997,2.300781 0,0.9 0.534885,1.69961 1.392713,2.09961 -0.321685,0.1 -0.643789,0.3 -0.965474,0.5 v -0.59961 c -0.214457,-1.3 -1.500361,-2.10039 -2.894331,-1.90039 -0.214457,0.1 -0.321685,0.09922 -0.536142,0.199218 0,-0.2 0.10681,-0.399609 0.10681,-0.599609 0,-0.3 -0.106392,-0.500781 -0.213618,-0.800781 h 0.536142 c 1.39397,0 2.464998,-0.998828 2.464998,-2.298828 0,-1.3 -1.071028,-2.300782 -2.464998,-2.300782 -0.965056,0 -1.715655,0.501172 -2.144569,1.201172 v -0.101562 c 0.214457,-1.3 -0.750599,-2.39961 -2.144569,-2.59961 -1.39397,-0.2 -2.573065,0.7 -2.787522,2 v 0.59961 c -0.214457,-0.4 -0.751856,-0.699219 -1.287998,-0.699219 -0.214457,0 -0.321685,-3.91e-4 -0.536142,0.09961 0.321685,-0.4 0.429333,-0.798828 0.429333,-1.298828 0,-1.3 -1.073122,-2.300781 -2.467092,-2.300781 z m 64.18209,14.712885 c 0.191382,-0.19564 0.415189,-0.35837 0.665996,-0.488276 0.333899,-0.35876 0.561266,-0.803341 0.561266,-1.324218 0,-1.1 -1.071448,-2.09961 -2.358189,-2.09961 -1.179513,0 -2.251369,0.89961 -2.251369,2.09961 0,1.1 0.964627,2.099604 2.251369,2.099604 0.415445,0 0.789062,-0.11966 1.130927,-0.28711 z M 21.690089,77.985464 c -1.39397,0 -2.467092,0.998828 -2.467092,2.298828 0,1.3 1.18035,2.300782 2.467092,2.300782 1.39397,0 2.467092,-1.000782 2.467092,-2.300782 0,-1.3 -1.073122,-2.298828 -2.467092,-2.298828 z m 4.932089,2.5 c -1.286741,0 -2.251378,0.99961 -2.251378,2.09961 0,0.1 0.10681,0.3 0.10681,0.5 -0.428914,-0.2 -0.856989,-0.300782 -1.285903,-0.300782 -1.393969,0 -2.467093,1.000782 -2.467093,2.300782 0,1.3 1.180352,2.398828 2.467093,2.298828 1.39397,0 2.464998,-0.998828 2.464998,-2.298828 0,-0.2 4.18e-4,-0.501172 -0.10681,-0.701172 0.321685,0.2 0.643371,0.300781 1.072284,0.300781 1.286742,0 2.25138,-0.999609 2.25138,-2.099609 0,-1.2 -1.071867,-2.09961 -2.251381,-2.09961 z m 61.549547,8.898437 c -1.286742,0 -2.467091,1.00078 -2.467091,2.30078 0,1.3 1.073121,2.30078 2.467091,2.30078 1.393969,0 2.467101,-1.00078 2.467101,-2.30078 0,-1.3 -1.073132,-2.30078 -2.467101,-2.30078 z"
           sodipodi:nodetypes="cssscscsssscccsssccscccccscccsscccsssssssssssccssccsssccccccscccsccssccssccscsssssssssssssccssccssscscccsccscccssscssssscccscssscscccscscssssscssccccccccsccccscscssscccsccssscssssssssssssccsscccsccsccssscscccccssssscccccccccccccccccsccscccscccscscccsssssscccscsscsscscccssssscccscscccssscsssscsscssscssscssscsssscssssscscssscssssssssssssscscssscssssssscsssssssssssssscsssssssssscssscsscsssccccscssssssssssssssscsssccsssccssscssssssssssscsssssssssssssssssscssscssssscssscssscsssscssscssssssscssscssssscssscccssccsssccssscsssssssssssscssssssssscsssscssscssssscsssscsssssssssscssssssssscsscsssscssscscccssscssssssssscsssssssssssssssssssssscsssscssscssscsssssssssssccssssssssssssscsssssscsscccscssscscsssssscsccsscsssssccsscsssssssscsssscssssssscsscssscccscccccccsccscsssscscscscsssscscsccccscscscsscssssccsccsccscscscscccccscsscscsscsccscsccsscccssccscsscsscsccssscccsscccsscscsccccssccsscscssscccccscsssccsccscsccccsssscssssssscsscscssssssss" />
      </g>
    </g>
  </g>
  <style
     id="style9">.st2{fill:#253867}.st3{fill:#fff}</style>
</svg>
