<?xml version="1.0" encoding="UTF-8" standalone="no"?>
<svg
   viewBox="0 0 32 32"
   width="100"
   height="100"
   version="1.1"
   id="svg4"
   sodipodi:docname="perfume.svg"
   inkscape:version="1.1.2 (b8e25be833, 2022-02-05)"
   xmlns:inkscape="http://www.inkscape.org/namespaces/inkscape"
   xmlns:sodipodi="http://sodipodi.sourceforge.net/DTD/sodipodi-0.dtd"
   xmlns="http://www.w3.org/2000/svg"
   xmlns:svg="http://www.w3.org/2000/svg">
  <defs
     id="defs8" />
  <sodipodi:namedview
     id="namedview6"
     pagecolor="#ffffff"
     bordercolor="#666666"
     borderopacity="1.0"
     inkscape:pageshadow="2"
     inkscape:pageopacity="0.0"
     inkscape:pagecheckerboard="0"
     showgrid="false"
     inkscape:zoom="5.9538391"
     inkscape:cx="77.177094"
     inkscape:cy="54.586628"
     inkscape:window-width="1920"
     inkscape:window-height="1046"
     inkscape:window-x="-11"
     inkscape:window-y="-11"
     inkscape:window-maximized="1"
     inkscape:current-layer="svg4" />
  <rect
     style="fill:none;fill-opacity:1;stroke:none;stroke-width:30.0959"
     id="rect847"
     width="32"
     height="32"
     x="0"
     y="7.9450557e-10" />
  <path
     d="m 27.420023,19.39394 a 1.14082,1.14082 0 0 0 -0.12549,-0.524778 10.814973,10.814973 0 0 0 -6.730838,-7.301248 0.57040998,0.57040998 0 0 0 0.01141,-0.159714 V 9.12656 A 1.14082,1.14082 0 0 0 19.434283,7.98574 V 6.6623884 l 2.076293,1.1408199 a 3.0345811,3.0345811 0 0 0 1.517291,0.4106957 3.0916221,3.0916221 0 0 0 1.528698,-0.4221038 3.6163993,3.6163993 0 0 0 1.722638,-3.0916219 3.5935829,3.5935829 0 0 0 -1.722638,-3.1372549 3.0003565,3.0003565 0 0 0 -3.045989,0 L 21.145513,1.768271 a 1.14082,1.14082 0 0 0 -0.422103,1.5515151 1.14082,1.14082 0 0 0 1.562923,0.4335116 l 0.353655,-0.2167558 a 0.74153301,0.74153301 0 0 1 0.764349,0 1.311943,1.311943 0 0 1 0.593226,1.14082 1.311943,1.311943 0 0 1 -0.593226,1.1408199 0.70730838,0.70730838 0 0 1 -0.764349,0 L 19.434283,4.0385027 V 1.14082 A 1.14082,1.14082 0 0 0 18.293463,0 h -4.563279 a 1.14082,1.14082 0 0 0 -1.140821,1.14082 v 2.2816399 h -1.14082 a 1.14082,1.14082 0 0 0 0,2.2816399 h 1.14082 V 7.98574 a 1.14082,1.14082 0 0 0 -1.14082,1.14082 v 2.28164 a 0.798574,0.798574 0 0 0 0,0.159714 10.780749,10.780749 0 0 0 -5.008199,3.730482 1.14082,1.14082 0 0 0 0.2509804,1.58574 1.14082,1.14082 0 0 0 1.5857399,-0.239573 8.5675581,8.5675581 0 0 1 3.9928697,-2.954724 h 7.483779 a 8.55615,8.55615 0 0 1 4.768627,4.300892 17.990731,17.990731 0 0 0 -5.327629,0.285205 18.663814,18.663814 0 0 0 -3.627807,1.209269 15.834581,15.834581 0 0 1 -3.217112,1.072371 16.051337,16.051337 0 0 1 -5.6356512,0.114082 9.7197861,9.7197861 0 0 1 0.171123,-1.003921 1.14082,1.14082 0 1 0 -2.2131908,-0.547594 10.76934,10.76934 0 0 0 7.038859,12.822816 1.2891266,1.2891266 0 0 0 0.365063,0.05704 h 7.871658 a 1.2891266,1.2891266 0 0 0 0.365062,-0.05704 11.008913,11.008913 0 0 0 2.544028,-1.334759 c 0.239572,-0.159715 0.467737,-0.330838 0.684492,-0.501961 a 10.529768,10.529768 0 0 0 1.277718,-1.19786 10.712299,10.712299 0 0 0 2.829234,-7.232799 10.860606,10.860606 0 0 0 -0.228164,-2.28164 z M 14.871004,2.2816399 h 2.28164 V 7.98574 h -2.28164 z M 13.730184,11.4082 v -1.14082 h 4.563279 v 1.14082 z m 9.423172,15.971479 a 8.7272728,8.7272728 0 0 1 -1.003921,0.946881 c -0.182531,0.136898 -0.353654,0.262388 -0.547594,0.387879 a 8.3165775,8.3165775 0 0 1 -1.848128,0.946881 h -7.483779 a 8.5105167,8.5105167 0 0 1 -5.5101604,-6.685206 18.344385,18.344385 0 0 0 2.4755796,0.182531 17.773975,17.773975 0 0 0 3.5935828,-0.342246 18.800713,18.800713 0 0 0 3.616399,-1.209269 16.701605,16.701605 0 0 1 3.228521,-1.07237 15.857398,15.857398 0 0 1 5.601425,-0.114083 9.4916219,9.4916219 0 0 1 0.09127,1.254902 8.4762922,8.4762922 0 0 1 -2.213191,5.7041 z"
     fill="#231f20"
     id="path2"
     style="fill:#ededed;fill-opacity:1;stroke-width:1.14082" />
</svg>
